<?xml version="1.0" encoding="UTF-8"?>
<!DOCTYPE svg PUBLIC "-//W3C//DTD SVG 1.1//EN" "http://www.w3.org/Graphics/SVG/1.1/DTD/svg11.dtd">
<svg xmlns="http://www.w3.org/2000/svg" version="1.1" width="100px" height="100px" style="shape-rendering:geometricPrecision; text-rendering:geometricPrecision; image-rendering:optimizeQuality; fill-rule:evenodd; clip-rule:evenodd" xmlns:xlink="http://www.w3.org/1999/xlink">
<g><path style="opacity:0.008" fill="#fcfdfc" d="M 32.5,22.5 C 33.8333,23.1667 33.8333,23.1667 32.5,22.5 Z"/></g>
<g><path style="opacity:0.008" fill="#fcfdfc" d="M 43.5,22.5 C 44.8333,23.1667 44.8333,23.1667 43.5,22.5 Z"/></g>
<g><path style="opacity:0.008" fill="#fefffe" d="M 43.5,23.5 C 43.5,23.8333 43.5,24.1667 43.5,24.5C 40.8333,24.1667 40.8333,23.8333 43.5,23.5 Z"/></g>
<g><path style="opacity:0.675" fill="#fefefe" d="M 34.5,64.5 C 32.1667,64.5 29.8333,64.5 27.5,64.5C 27.6665,52.8286 27.4999,41.1619 27,29.5C 26.8305,40.6743 26.3305,51.6743 25.5,62.5C 25.7845,60.5853 25.4511,58.9187 24.5,57.5C 25.7725,47.6239 25.7725,37.7906 24.5,28C 27.4766,26.8968 30.4766,25.7301 33.5,24.5C 34.4992,37.8167 34.8325,51.15 34.5,64.5 Z"/></g>
<g><path style="opacity:0.012" fill="#fefffe" d="M 38.5,25.5 C 38.8966,24.475 39.5632,24.3083 40.5,25C 39.9056,25.4643 39.2389,25.631 38.5,25.5 Z"/></g>
<g><path style="opacity:0.595" fill="#fefefe" d="M 43.5,24.5 C 45.2026,35.6542 46.2026,47.1542 46.5,59C 45.7665,60.7659 45.4332,62.5992 45.5,64.5C 43.1667,64.5 40.8333,64.5 38.5,64.5C 38.8322,52.8143 38.4989,41.1477 37.5,29.5C 37.1307,35.225 37.1307,41.225 37.5,47.5C 37.4955,53.5415 36.8288,59.2082 35.5,64.5C 35.3334,51.4957 35.5001,38.4957 36,25.5C 38.7848,26.9071 41.2848,26.5737 43.5,24.5 Z"/></g>
<g><path style="opacity:0.008" fill="#fdfdfd" d="M 6.5,36.5 C 6.89657,35.475 7.56323,35.3083 8.5,36C 7.90558,36.4643 7.23891,36.631 6.5,36.5 Z"/></g>
<g><path style="opacity:0.008" fill="#fefffe" d="M 16.5,36.5 C 15.7611,36.631 15.0944,36.4643 14.5,36C 15.4368,35.3083 16.1034,35.475 16.5,36.5 Z"/></g>
<g><path style="opacity:0.008" fill="#fefffe" d="M 63.5,36.5 C 62.7611,36.631 62.0944,36.4643 61.5,36C 62.4368,35.3083 63.1034,35.475 63.5,36.5 Z"/></g>
<g><path style="opacity:0.008" fill="#fefffe" d="M 88.5,36.5 C 87.7611,36.631 87.0944,36.4643 86.5,36C 87.4368,35.3083 88.1034,35.475 88.5,36.5 Z"/></g>
<g><path style="opacity:0.649" fill="#fefefe" d="M 16.5,37.5 C 17.5,39.1667 18.8333,40.5 20.5,41.5C 20.8984,45.7607 21.8984,49.7607 23.5,53.5C 23.2322,55.099 23.5655,56.4324 24.5,57.5C 24.2155,59.4147 24.5489,61.0813 25.5,62.5C 23.7211,64.3435 21.3878,65.0102 18.5,64.5C 18.6567,63.1266 18.49,61.7932 18,60.5C 17.2828,61.0442 16.7828,61.7109 16.5,62.5C 15.8333,62.5 15.5,62.8333 15.5,63.5C 14.5084,63.3284 13.8417,63.6618 13.5,64.5C 10.0645,65.3678 6.73119,65.3678 3.5,64.5C 0.76045,62.0997 -0.0728829,59.0997 1,55.5C 2.83333,52.3333 5.33333,49.8333 8.5,48C 7.09531,46.7308 5.42865,46.2308 3.5,46.5C 0.090626,44.2082 0.423959,41.7082 4.5,39C 8.29771,36.5459 12.2977,36.0459 16.5,37.5 Z M 15.5,40.5 C 12.8333,40.8333 12.8333,41.1667 15.5,41.5C 15.1667,42.1667 14.8333,42.8333 14.5,43.5C 11.8333,43.8333 11.8333,44.1667 14.5,44.5C 12.6424,46.7311 10.6424,46.7311 8.5,44.5C 10.6977,44.5912 11.0311,43.9245 9.5,42.5C 12.1667,42.1667 12.1667,41.8333 9.5,41.5C 11.4021,39.8489 13.4021,39.5155 15.5,40.5 Z M 15.5,41.5 C 15.5,41.1667 15.5,40.8333 15.5,40.5C 16.9221,40.7496 17.9221,41.583 18.5,43C 17.9056,43.4643 17.2389,43.631 16.5,43.5C 16.6716,42.5084 16.3382,41.8417 15.5,41.5 Z M 16.5,48.5 C 17.2679,47.7375 17.7679,46.7375 18,45.5C 18.6667,47.1667 18.6667,48.8333 18,50.5C 17.2828,49.9558 16.7828,49.2891 16.5,48.5 Z M 16.5,48.5 C 14.663,48.3605 14.3296,47.6939 15.5,46.5C 16.2975,46.9569 16.6309,47.6236 16.5,48.5 Z M 14.5,50.5 C 14.0618,50.4346 13.7284,50.6012 13.5,51C 14.7014,51.9025 15.5348,53.0692 16,54.5C 16.4643,53.9056 16.631,53.2389 16.5,52.5C 17.8333,54.5 17.8333,56.5 16.5,58.5C 16.1667,55.8333 15.8333,55.8333 15.5,58.5C 14.8333,58.5 14.5,58.8333 14.5,59.5C 13.1667,59.8333 13.1667,60.1667 14.5,60.5C 14.1583,61.3382 13.4916,61.6716 12.5,61.5C 11.8333,60.1667 11.1667,60.1667 10.5,61.5C 9.50838,61.6716 8.84171,61.3382 8.5,60.5C 7.30541,60.1344 6.63874,59.301 6.5,58C 6.89901,56.2725 7.56567,54.7725 8.5,53.5C 8.85931,55.8312 9.52598,55.6645 10.5,53C 10.2716,52.6012 9.93822,52.4346 9.5,52.5C 9.41423,51.5041 9.74756,50.6708 10.5,50C 12.0657,49.235 13.3991,49.4017 14.5,50.5 Z M 15.5,58.5 C 15.8333,58.5 16.1667,58.5 16.5,58.5C 16.5,59.8333 15.8333,60.5 14.5,60.5C 14.5,60.1667 14.5,59.8333 14.5,59.5C 15.1667,59.5 15.5,59.1667 15.5,58.5 Z M 18.5,64.5 C 18.1667,64.5 17.8333,64.5 17.5,64.5C 17.6716,63.5084 17.3382,62.8417 16.5,62.5C 16.7828,61.7109 17.2828,61.0442 18,60.5C 18.49,61.7932 18.6567,63.1266 18.5,64.5 Z"/></g>
<g><path style="opacity:0.008" fill="#fefffe" d="M 16.5,36.5 C 17.8333,37.1667 17.8333,37.1667 16.5,36.5 Z"/></g>
<g><path style="opacity:0.638" fill="#fefefe" d="M 63.5,37.5 C 63.8417,38.3382 64.5084,38.6716 65.5,38.5C 65.427,40.0269 66.0937,41.0269 67.5,41.5C 67.2627,42.791 67.596,43.791 68.5,44.5C 68.2322,46.099 68.5655,47.4324 69.5,48.5C 69.2322,50.099 69.5655,51.4324 70.5,52.5C 70.4203,55.7814 71.087,58.7814 72.5,61.5C 72.5,62.5 72.5,63.5 72.5,64.5C 70.1667,64.5 67.8333,64.5 65.5,64.5C 65.6567,63.1266 65.49,61.7932 65,60.5C 64.2828,61.0442 63.7828,61.7109 63.5,62.5C 62.8333,62.5 62.5,62.8333 62.5,63.5C 61.5084,63.3284 60.8417,63.6618 60.5,64.5C 57.1667,65.8333 53.8333,65.8333 50.5,64.5C 47.7605,62.0997 46.9271,59.0997 48,55.5C 49.8333,52.3333 52.3333,49.8333 55.5,48C 53.1382,46.2687 50.4715,45.4354 47.5,45.5C 50.3708,38.0899 55.7041,35.4232 63.5,37.5 Z M 62.5,40.5 C 59.8333,40.8333 59.8333,41.1667 62.5,41.5C 62.1667,42.1667 61.8333,42.8333 61.5,43.5C 59.9731,43.427 58.9731,44.0937 58.5,45.5C 57.209,45.7373 56.209,45.404 55.5,44.5C 56.9221,44.2504 57.9221,43.417 58.5,42C 57.9056,41.5357 57.2389,41.369 56.5,41.5C 58.4021,39.8489 60.4021,39.5155 62.5,40.5 Z M 64.5,41.5 C 65.7574,42.6226 65.4241,43.2893 63.5,43.5C 63.8333,42.8333 64.1667,42.1667 64.5,41.5 Z M 63.5,48.5 C 62.9569,48.44 62.6236,48.1067 62.5,47.5C 63.2421,46.7132 64.0754,46.0465 65,45.5C 65.6667,47.1667 65.6667,48.8333 65,50.5C 64.2828,49.9558 63.7828,49.2891 63.5,48.5 Z M 63.5,52.5 C 65.7311,54.6424 65.7311,56.6424 63.5,58.5C 63.3059,60.9118 61.9726,61.9118 59.5,61.5C 58.0379,62.4709 56.7046,62.1376 55.5,60.5C 54.8476,59.5514 54.5143,58.3847 54.5,57C 54.3068,54.9919 54.9735,53.4919 56.5,52.5C 56.4346,52.9382 56.6012,53.2716 57,53.5C 59.4624,49.5651 61.4624,49.8984 63,54.5C 63.4643,53.9056 63.631,53.2389 63.5,52.5 Z"/></g>
<g><path style="opacity:0.008" fill="#fefffe" d="M 63.5,36.5 C 64.8333,37.1667 64.8333,37.1667 63.5,36.5 Z"/></g>
<g><path style="opacity:0.743" fill="#fefefe" d="M 83.5,39.5 C 84.1667,39.5 84.5,39.1667 84.5,38.5C 86.153,38.3404 87.4863,37.6737 88.5,36.5C 90.5648,36.5172 92.5648,36.8505 94.5,37.5C 95.1667,38.8333 96.1667,39.8333 97.5,40.5C 97.5,48.5 97.5,56.5 97.5,64.5C 95.1667,64.5 92.8333,64.5 90.5,64.5C 90.8257,56.3159 90.4924,48.3159 89.5,40.5C 88.0379,39.5291 86.7046,39.8624 85.5,41.5C 84.8333,41.5 84.5,41.8333 84.5,42.5C 83.6618,42.8417 83.3284,43.5084 83.5,44.5C 82.7784,44.9175 82.2784,45.5842 82,46.5C 81.5005,52.4908 81.3338,58.4908 81.5,64.5C 79.1667,64.5 76.8333,64.5 74.5,64.5C 75.0906,56.2959 74.424,48.2959 72.5,40.5C 73.6016,39.8243 74.6016,39.1577 75.5,38.5C 77.5824,38.528 79.4157,37.8613 81,36.5C 81.3333,38.5 81.6667,40.5 82,42.5C 82.5133,41.4734 83.0133,40.4734 83.5,39.5 Z"/></g>
<g><path style="opacity:0.008" fill="#fefffe" d="M 84.5,36.5 C 85.8333,37.1667 85.8333,37.1667 84.5,36.5 Z"/></g>
<g><path style="opacity:0.008" fill="#fefffe" d="M 94.5,36.5 C 95.8333,37.1667 95.8333,37.1667 94.5,36.5 Z"/></g>
<g><path style="opacity:0.008" fill="#fcfdfc" d="M 18.5,37.5 C 19.8333,38.1667 19.8333,38.1667 18.5,37.5 Z"/></g>
<g><path style="opacity:0.008" fill="#fcfdfc" d="M 66.5,38.5 C 65.8333,37.1667 65.8333,37.1667 66.5,38.5 Z"/></g>
<g><path style="opacity:0.008" fill="#fdfdfd" d="M 75.5,38.5 C 74.448,38.6495 73.448,38.4828 72.5,38C 73.7494,37.2599 74.7494,37.4265 75.5,38.5 Z"/></g>
<g><path style="opacity:0.016" fill="#fefffe" d="M 84.5,37.5 C 84.5,37.8333 84.5,38.1667 84.5,38.5C 83.8333,38.5 83.5,38.8333 83.5,39.5C 82.2426,38.3774 82.5759,37.7107 84.5,37.5 Z"/></g>
<g><path style="opacity:0.008" fill="#fcfdfc" d="M 66.5,38.5 C 67.8333,39.1667 67.8333,39.1667 66.5,38.5 Z"/></g>
<g><path style="opacity:0.008" fill="#fefffe" d="M 97.5,39.5 C 98.8333,40.1667 98.8333,40.1667 97.5,39.5 Z"/></g>
<g><path style="opacity:0.008" fill="#fefffe" d="M 20.5,40.5 C 21.8333,41.1667 21.8333,41.1667 20.5,40.5 Z"/></g>
<g><path style="opacity:0.008" fill="#fefffe" d="M 67.5,40.5 C 68.8333,41.1667 68.8333,41.1667 67.5,40.5 Z"/></g>
<g><path style="opacity:0.008" fill="#fefffe" d="M 89.5,40.5 C 89.631,41.2389 89.4643,41.9056 89,42.5C 88.3083,41.5632 88.475,40.8966 89.5,40.5 Z"/></g>
<g><path style="opacity:0.008" fill="#fefffe" d="M -0.5,41.5 C 0.833333,42.1667 0.833333,42.1667 -0.5,41.5 Z"/></g>
<g><path style="opacity:0.008" fill="#fefffe" d="M 15.5,41.5 C 16.3382,41.8417 16.6716,42.5084 16.5,43.5C 15.8333,43.5 15.1667,43.5 14.5,43.5C 14.8333,42.8333 15.1667,42.1667 15.5,41.5 Z"/></g>
<g><path style="opacity:0.01" fill="#fdfdfd" d="M 56.5,41.5 C 57.2389,41.369 57.9056,41.5357 58.5,42C 57.9221,43.417 56.9221,44.2504 55.5,44.5C 55.5,43.8333 55.5,43.1667 55.5,42.5C 56.1667,42.5 56.5,42.1667 56.5,41.5 Z"/></g>
<g><path style="opacity:0.008" fill="#fefefe" d="M 62.5,41.5 C 63.1667,41.5 63.8333,41.5 64.5,41.5C 64.1667,42.1667 63.8333,42.8333 63.5,43.5C 62.8333,43.5 62.1667,43.5 61.5,43.5C 61.8333,42.8333 62.1667,42.1667 62.5,41.5 Z"/></g>
<g><path style="opacity:0.016" fill="#fefffe" d="M 85.5,41.5 C 86.8333,42.1667 86.8333,42.1667 85.5,41.5 Z"/></g>
<g><path style="opacity:0.008" fill="#fefefe" d="M 99.5,41.5 C 99.5,49.1667 99.5,56.8333 99.5,64.5C 99.1667,64.5 98.8333,64.5 98.5,64.5C 98.1746,56.6484 98.508,48.9818 99.5,41.5 Z"/></g>
<g><path style="opacity:0.016" fill="#fefffe" d="M 8.5,42.5 C 8.83333,42.5 9.16667,42.5 9.5,42.5C 11.0311,43.9245 10.6977,44.5912 8.5,44.5C 8.5,43.8333 8.5,43.1667 8.5,42.5 Z"/></g>
<g><path style="opacity:0.008" fill="#fefffe" d="M 21.5,42.5 C 22.525,42.8966 22.6917,43.5632 22,44.5C 21.5357,43.9056 21.369,43.2389 21.5,42.5 Z"/></g>
<g><path style="opacity:0.008" fill="#fefffe" d="M 68.5,44.5 C 68.369,43.7611 68.5357,43.0944 69,42.5C 69.6917,43.4368 69.525,44.1034 68.5,44.5 Z"/></g>
<g><path style="opacity:0.009" fill="#fdfdfd" d="M 72.5,61.5 C 71.8395,55.2155 72.0062,48.8821 73,42.5C 73.82,49.0137 73.6533,55.3471 72.5,61.5 Z"/></g>
<g><path style="opacity:0.016" fill="#fefffe" d="M 84.5,42.5 C 84.8333,42.5 85.1667,42.5 85.5,42.5C 85.3147,43.1701 84.9813,43.1701 84.5,42.5 Z"/></g>
<g><path style="opacity:0.008" fill="#fdfdfd" d="M 83.5,44.5 C 84.525,44.8966 84.6917,45.5632 84,46.5C 83.5357,45.9056 83.369,45.2389 83.5,44.5 Z"/></g>
<g><path style="opacity:0.01" fill="#fefefe" d="M 22.5,45.5 C 23.5735,46.2506 23.7401,47.2506 23,48.5C 22.5172,47.552 22.3505,46.552 22.5,45.5 Z"/></g>
<g><path style="opacity:0.008" fill="#fefffe" d="M 47.5,45.5 C 47.5,45.8333 47.5,46.1667 47.5,46.5C 46.8299,46.0187 46.8299,45.6853 47.5,45.5 Z"/></g>
<g><path style="opacity:0.01" fill="#fefefe" d="M 69.5,48.5 C 69.3505,47.448 69.5172,46.448 70,45.5C 70.7401,46.7494 70.5735,47.7494 69.5,48.5 Z"/></g>
<g><path style="opacity:0.01" fill="#fdfdfd" d="M 3.5,46.5 C 2.74943,47.5735 1.74943,47.7401 0.5,47C 1.44802,46.5172 2.44802,46.3505 3.5,46.5 Z"/></g>
<g><path style="opacity:0.01" fill="#fdfdfd" d="M 47.5,46.5 C 48.552,46.3505 49.552,46.5172 50.5,47C 49.2506,47.7401 48.2506,47.5735 47.5,46.5 Z"/></g>
<g><path style="opacity:0.008" fill="#fefefe" d="M 82.5,64.5 C 82.3339,58.8236 82.5006,53.1569 83,47.5C 83.8184,53.3487 83.6517,59.0154 82.5,64.5 Z"/></g>
<g><path style="opacity:0.01" fill="#fdfdfd" d="M 23.5,53.5 C 23.3433,52.1266 23.51,50.7932 24,49.5C 24.765,51.0657 24.5983,52.3991 23.5,53.5 Z"/></g>
<g><path style="opacity:0.008" fill="#fefefe" d="M 70.5,52.5 C 70.3505,51.448 70.5172,50.448 71,49.5C 71.7401,50.7494 71.5735,51.7494 70.5,52.5 Z"/></g>
<g><path style="opacity:0.013" fill="#fefefe" d="M 16.5,62.5 C 17.3382,62.8417 17.6716,63.5084 17.5,64.5C 16.8333,64.5 16.1667,64.5 15.5,64.5C 15.5,64.1667 15.5,63.8333 15.5,63.5C 16.1667,63.5 16.5,63.1667 16.5,62.5 Z"/></g>
<g><path style="opacity:0.01" fill="#fefefe" d="M 63.5,62.5 C 64.7574,63.6226 64.4241,64.2893 62.5,64.5C 62.5,64.1667 62.5,63.8333 62.5,63.5C 63.1667,63.5 63.5,63.1667 63.5,62.5 Z"/></g>
<g><path style="opacity:0.008" fill="#fcfdfc" d="M 88.5,62.5 C 89.8333,63.1667 89.8333,63.1667 88.5,62.5 Z"/></g>
<g><path style="opacity:0.008" fill="#fefffe" d="M 3.5,64.5 C 2.83333,65.1667 2.83333,65.1667 3.5,64.5 Z"/></g>
<g><path style="opacity:0.008" fill="#fdfdfd" d="M 13.5,65.5 C 13.5,65.1667 13.5,64.8333 13.5,64.5C 14.1667,64.5 14.8333,64.5 15.5,64.5C 15.1583,65.3382 14.4916,65.6716 13.5,65.5 Z"/></g>
<g><path style="opacity:0.008" fill="#fcfdfc" d="M 34.5,64.5 C 34.8333,64.5 35.1667,64.5 35.5,64.5C 35.3147,65.1701 34.9813,65.1701 34.5,64.5 Z"/></g>
<g><path style="opacity:0.008" fill="#fefffe" d="M 50.5,64.5 C 49.8333,65.1667 49.8333,65.1667 50.5,64.5 Z"/></g>
<g><path style="opacity:0.008" fill="#fdfdfd" d="M 60.5,65.5 C 60.5,65.1667 60.5,64.8333 60.5,64.5C 61.1667,64.5 61.8333,64.5 62.5,64.5C 62.1583,65.3382 61.4916,65.6716 60.5,65.5 Z"/></g>
<g><path style="opacity:0.008" fill="#fcfdfc" d="M 72.5,64.5 C 73.8333,65.1667 73.8333,65.1667 72.5,64.5 Z"/></g>
<g><path style="opacity:0.008" fill="#fcfdfc" d="M 81.5,64.5 C 81.8333,64.5 82.1667,64.5 82.5,64.5C 82.3147,65.1701 81.9813,65.1701 81.5,64.5 Z"/></g>
<g><path style="opacity:0.008" fill="#fcfdfc" d="M 97.5,64.5 C 97.8333,64.5 98.1667,64.5 98.5,64.5C 98.3147,65.1701 97.9813,65.1701 97.5,64.5 Z"/></g>
<g><path style="opacity:0.008" fill="#fdfdfd" d="M 4.5,66.5 C 4.89657,65.475 5.56323,65.3083 6.5,66C 5.90558,66.4643 5.23891,66.631 4.5,66.5 Z"/></g>
<g><path style="opacity:0.008" fill="#fefefe" d="M 13.5,65.5 C 12.7494,66.5735 11.7494,66.7401 10.5,66C 11.448,65.5172 12.448,65.3505 13.5,65.5 Z"/></g>
<g><path style="opacity:0.013" fill="#fefefe" d="M 18.5,66.5 C 20.6282,65.3709 22.9615,65.2042 25.5,66C 23.1902,66.4966 20.8568,66.6633 18.5,66.5 Z"/></g>
<g><path style="opacity:0.013" fill="#fefefe" d="M 34.5,65.5 C 32.3718,66.6291 30.0385,66.7958 27.5,66C 29.8098,65.5034 32.1432,65.3367 34.5,65.5 Z"/></g>
<g><path style="opacity:0.014" fill="#fefffe" d="M 38.5,66.5 C 40.2884,65.3775 42.2884,65.2109 44.5,66C 42.5273,66.4955 40.5273,66.6621 38.5,66.5 Z"/></g>
<g><path style="opacity:0.008" fill="#fefffe" d="M 51.5,66.5 C 51.8966,65.475 52.5632,65.3083 53.5,66C 52.9056,66.4643 52.2389,66.631 51.5,66.5 Z"/></g>
<g><path style="opacity:0.008" fill="#fefefe" d="M 60.5,65.5 C 59.7494,66.5735 58.7494,66.7401 57.5,66C 58.448,65.5172 59.448,65.3505 60.5,65.5 Z"/></g>
<g><path style="opacity:0.013" fill="#fefefe" d="M 72.5,65.5 C 70.3718,66.6291 68.0385,66.7958 65.5,66C 67.8098,65.5034 70.1432,65.3367 72.5,65.5 Z"/></g>
<g><path style="opacity:0.014" fill="#fefefe" d="M 81.5,65.5 C 79.7116,66.6225 77.7116,66.7891 75.5,66C 77.4727,65.5045 79.4727,65.3379 81.5,65.5 Z"/></g>
<g><path style="opacity:0.014" fill="#fefffe" d="M 97.5,65.5 C 95.7116,66.6225 93.7116,66.7891 91.5,66C 93.4727,65.5045 95.4727,65.3379 97.5,65.5 Z"/></g>
</svg>
